<mxfile host="Electron" agent="Mozilla/5.0 (Windows NT 10.0; Win64; x64) AppleWebKit/537.36 (KHTML, like Gecko) draw.io/24.7.17 Chrome/128.0.6613.36 Electron/32.0.1 Safari/537.36" version="24.7.17">
  <diagram name="Page-1" id="8xkws6ynANvZ4xdFtM8w">
    <mxGraphModel dx="1120" dy="2008" grid="1" gridSize="10" guides="1" tooltips="1" connect="1" arrows="1" fold="1" page="1" pageScale="1" pageWidth="1654" pageHeight="1169" math="0" shadow="0">
      <root>
        <mxCell id="0" />
        <mxCell id="1" parent="0" />
        <mxCell id="Rb0hyOwbaBzRJe8RRPHV-1" value="&lt;font style=&quot;font-size: 33px;&quot;&gt;User&lt;/font&gt;" style="html=1;whiteSpace=wrap;strokeWidth=4;" vertex="1" parent="1">
          <mxGeometry x="30" y="20" width="110" height="50" as="geometry" />
        </mxCell>
        <mxCell id="Rb0hyOwbaBzRJe8RRPHV-2" value="&lt;font style=&quot;font-size: 33px;&quot;&gt;User&lt;/font&gt;" style="html=1;whiteSpace=wrap;strokeWidth=4;" vertex="1" parent="1">
          <mxGeometry x="24" y="1019" width="110" height="50" as="geometry" />
        </mxCell>
        <mxCell id="Rb0hyOwbaBzRJe8RRPHV-3" value="&lt;font style=&quot;font-size: 15px;&quot;&gt;E-Commerce Platform&lt;/font&gt;" style="html=1;whiteSpace=wrap;strokeWidth=4;" vertex="1" parent="1">
          <mxGeometry x="535" y="2" width="180" height="50" as="geometry" />
        </mxCell>
        <mxCell id="Rb0hyOwbaBzRJe8RRPHV-4" value="&lt;font style=&quot;font-size: 16px;&quot;&gt;E-Commerce Platfrom&lt;/font&gt;" style="html=1;whiteSpace=wrap;strokeWidth=4;" vertex="1" parent="1">
          <mxGeometry x="545" y="1010" width="170" height="50" as="geometry" />
        </mxCell>
        <mxCell id="Rb0hyOwbaBzRJe8RRPHV-5" value="&lt;font style=&quot;font-size: 17px;&quot;&gt;Warehouse&lt;/font&gt;" style="html=1;whiteSpace=wrap;strokeWidth=4;" vertex="1" parent="1">
          <mxGeometry x="1060" y="2" width="110" height="50" as="geometry" />
        </mxCell>
        <mxCell id="Rb0hyOwbaBzRJe8RRPHV-6" value="&lt;font style=&quot;font-size: 24px;&quot;&gt;Payment Process&lt;/font&gt;" style="html=1;whiteSpace=wrap;strokeWidth=4;" vertex="1" parent="1">
          <mxGeometry x="1460" y="30" width="190" height="50" as="geometry" />
        </mxCell>
        <mxCell id="Rb0hyOwbaBzRJe8RRPHV-7" value="&lt;font style=&quot;font-size: 17px;&quot;&gt;Warehouse&lt;/font&gt;" style="html=1;whiteSpace=wrap;strokeWidth=4;" vertex="1" parent="1">
          <mxGeometry x="1060" y="990" width="110" height="50" as="geometry" />
        </mxCell>
        <mxCell id="Rb0hyOwbaBzRJe8RRPHV-8" value="&lt;font style=&quot;font-size: 20px;&quot;&gt;Payment Process&lt;/font&gt;" style="html=1;whiteSpace=wrap;strokeWidth=3;" vertex="1" parent="1">
          <mxGeometry x="1513" y="980" width="110" height="50" as="geometry" />
        </mxCell>
        <mxCell id="Rb0hyOwbaBzRJe8RRPHV-9" value="" style="endArrow=none;dashed=1;html=1;rounded=0;entryX=0.5;entryY=1;entryDx=0;entryDy=0;exitX=0.5;exitY=0;exitDx=0;exitDy=0;" edge="1" parent="1" source="Rb0hyOwbaBzRJe8RRPHV-2" target="Rb0hyOwbaBzRJe8RRPHV-1">
          <mxGeometry width="50" height="50" relative="1" as="geometry">
            <mxPoint x="150" y="570" as="sourcePoint" />
            <mxPoint x="200" y="520" as="targetPoint" />
          </mxGeometry>
        </mxCell>
        <mxCell id="Rb0hyOwbaBzRJe8RRPHV-10" value="" style="endArrow=none;dashed=1;html=1;rounded=0;entryX=0.5;entryY=1;entryDx=0;entryDy=0;exitX=0.5;exitY=0;exitDx=0;exitDy=0;" edge="1" parent="1" source="Rb0hyOwbaBzRJe8RRPHV-4" target="Rb0hyOwbaBzRJe8RRPHV-3">
          <mxGeometry width="50" height="50" relative="1" as="geometry">
            <mxPoint x="390" y="570" as="sourcePoint" />
            <mxPoint x="440" y="520" as="targetPoint" />
          </mxGeometry>
        </mxCell>
        <mxCell id="Rb0hyOwbaBzRJe8RRPHV-11" value="" style="endArrow=none;dashed=1;html=1;rounded=0;entryX=0.5;entryY=1;entryDx=0;entryDy=0;exitX=0.5;exitY=0;exitDx=0;exitDy=0;" edge="1" parent="1" source="Rb0hyOwbaBzRJe8RRPHV-7" target="Rb0hyOwbaBzRJe8RRPHV-5">
          <mxGeometry width="50" height="50" relative="1" as="geometry">
            <mxPoint x="970" y="570" as="sourcePoint" />
            <mxPoint x="1020" y="520" as="targetPoint" />
          </mxGeometry>
        </mxCell>
        <mxCell id="Rb0hyOwbaBzRJe8RRPHV-12" value="" style="endArrow=none;dashed=1;html=1;rounded=0;entryX=0.5;entryY=1;entryDx=0;entryDy=0;exitX=0.5;exitY=0;exitDx=0;exitDy=0;" edge="1" parent="1" source="Rb0hyOwbaBzRJe8RRPHV-8" target="Rb0hyOwbaBzRJe8RRPHV-6">
          <mxGeometry width="50" height="50" relative="1" as="geometry">
            <mxPoint x="1350" y="570" as="sourcePoint" />
            <mxPoint x="1400" y="520" as="targetPoint" />
          </mxGeometry>
        </mxCell>
        <mxCell id="Rb0hyOwbaBzRJe8RRPHV-13" value="" style="endArrow=classic;html=1;rounded=0;strokeWidth=3;" edge="1" parent="1">
          <mxGeometry width="50" height="50" relative="1" as="geometry">
            <mxPoint x="80" y="150" as="sourcePoint" />
            <mxPoint x="630" y="150" as="targetPoint" />
          </mxGeometry>
        </mxCell>
        <mxCell id="Rb0hyOwbaBzRJe8RRPHV-14" value="&lt;font style=&quot;font-size: 50px;&quot;&gt;Place Order&lt;/font&gt;" style="text;html=1;align=center;verticalAlign=middle;whiteSpace=wrap;rounded=0;" vertex="1" parent="1">
          <mxGeometry x="180" y="110" width="320" height="30" as="geometry" />
        </mxCell>
        <mxCell id="Rb0hyOwbaBzRJe8RRPHV-15" value="" style="endArrow=classic;html=1;rounded=0;strokeWidth=4;" edge="1" parent="1">
          <mxGeometry width="50" height="50" relative="1" as="geometry">
            <mxPoint x="620" y="230" as="sourcePoint" />
            <mxPoint x="1110" y="230" as="targetPoint" />
          </mxGeometry>
        </mxCell>
        <mxCell id="Rb0hyOwbaBzRJe8RRPHV-16" value="&lt;font style=&quot;font-size: 44px;&quot;&gt;Order confirmation&lt;/font&gt;" style="text;strokeColor=none;fillColor=none;align=left;verticalAlign=top;spacingLeft=4;spacingRight=4;overflow=hidden;rotatable=0;points=[[0,0.5],[1,0.5]];portConstraint=eastwest;whiteSpace=wrap;html=1;" vertex="1" parent="1">
          <mxGeometry x="680" y="170" width="420" height="66" as="geometry" />
        </mxCell>
        <mxCell id="Rb0hyOwbaBzRJe8RRPHV-17" value="" style="endArrow=classic;html=1;rounded=0;" edge="1" parent="1">
          <mxGeometry width="50" height="50" relative="1" as="geometry">
            <mxPoint x="1110" y="310" as="sourcePoint" />
            <mxPoint x="1560" y="310" as="targetPoint" />
          </mxGeometry>
        </mxCell>
        <mxCell id="Rb0hyOwbaBzRJe8RRPHV-19" value="" style="endArrow=none;html=1;rounded=0;strokeWidth=4;" edge="1" parent="1">
          <mxGeometry width="50" height="50" relative="1" as="geometry">
            <mxPoint x="1120" y="470" as="sourcePoint" />
            <mxPoint x="1560" y="470" as="targetPoint" />
          </mxGeometry>
        </mxCell>
        <mxCell id="Rb0hyOwbaBzRJe8RRPHV-20" value="" style="endArrow=none;html=1;rounded=0;strokeWidth=3;" edge="1" parent="1">
          <mxGeometry width="50" height="50" relative="1" as="geometry">
            <mxPoint x="1120" y="630" as="sourcePoint" />
            <mxPoint x="1560" y="630" as="targetPoint" />
          </mxGeometry>
        </mxCell>
        <mxCell id="Rb0hyOwbaBzRJe8RRPHV-21" value="&lt;font style=&quot;font-size: 37px;&quot;&gt;Charge Credit Card&lt;/font&gt;" style="text;strokeColor=none;fillColor=none;align=left;verticalAlign=top;spacingLeft=4;spacingRight=4;overflow=hidden;rotatable=0;points=[[0,0.5],[1,0.5]];portConstraint=eastwest;whiteSpace=wrap;html=1;" vertex="1" parent="1">
          <mxGeometry x="1150" y="560" width="400" height="66" as="geometry" />
        </mxCell>
        <mxCell id="Rb0hyOwbaBzRJe8RRPHV-23" value="" style="endArrow=classic;html=1;rounded=0;strokeWidth=4;" edge="1" parent="1">
          <mxGeometry width="50" height="50" relative="1" as="geometry">
            <mxPoint x="630" y="870" as="sourcePoint" />
            <mxPoint x="1570" y="870" as="targetPoint" />
          </mxGeometry>
        </mxCell>
        <mxCell id="Rb0hyOwbaBzRJe8RRPHV-24" value="&lt;font style=&quot;font-size: 40px;&quot;&gt;Payment Success&lt;/font&gt;" style="text;strokeColor=none;fillColor=none;align=left;verticalAlign=top;spacingLeft=4;spacingRight=4;overflow=hidden;rotatable=0;points=[[0,0.5],[1,0.5]];portConstraint=eastwest;whiteSpace=wrap;html=1;" vertex="1" parent="1">
          <mxGeometry x="950" y="800" width="400" height="86" as="geometry" />
        </mxCell>
        <mxCell id="Rb0hyOwbaBzRJe8RRPHV-25" value="" style="endArrow=classic;html=1;rounded=0;strokeWidth=3;" edge="1" parent="1">
          <mxGeometry width="50" height="50" relative="1" as="geometry">
            <mxPoint x="630" y="710" as="sourcePoint" />
            <mxPoint x="70" y="710" as="targetPoint" />
          </mxGeometry>
        </mxCell>
        <mxCell id="Rb0hyOwbaBzRJe8RRPHV-26" value="&lt;font style=&quot;font-size: 60px;&quot;&gt;Reverve items&lt;/font&gt;" style="text;strokeColor=none;fillColor=none;align=left;verticalAlign=top;spacingLeft=4;spacingRight=4;overflow=hidden;rotatable=0;points=[[0,0.5],[1,0.5]];portConstraint=eastwest;whiteSpace=wrap;html=1;" vertex="1" parent="1">
          <mxGeometry x="140" y="630" width="490" height="70" as="geometry" />
        </mxCell>
        <mxCell id="Rb0hyOwbaBzRJe8RRPHV-29" value="&lt;font style=&quot;font-size: 37px;&quot;&gt;Processs Payment&lt;/font&gt;" style="text;strokeColor=none;fillColor=none;align=left;verticalAlign=top;spacingLeft=4;spacingRight=4;overflow=hidden;rotatable=0;points=[[0,0.5],[1,0.5]];portConstraint=eastwest;whiteSpace=wrap;html=1;" vertex="1" parent="1">
          <mxGeometry x="1150" y="236" width="450" height="66" as="geometry" />
        </mxCell>
      </root>
    </mxGraphModel>
  </diagram>
</mxfile>
